<?xml version="1.0" encoding="utf-8"?>
<!-- Generator: Adobe Illustrator 19.0.0, SVG Export Plug-In . SVG Version: 6.00 Build 0)  -->
<svg version="1.1" xmlns="http://www.w3.org/2000/svg" xmlns:xlink="http://www.w3.org/1999/xlink" x="0px" y="0px"
	 viewBox="0 0 85 115" style="enable-background:new 0 0 85 115;" xml:space="preserve">
<style type="text/css">
	.st0{fill:#0C3C45;}
	.st1{fill:#FFFFFF;}
	.st2{fill:#43AEB5;}
</style>
<g id="Camada_2">
	<g id="XMLID_101_">
		<g id="XMLID_3_">
			<g id="XMLID_141_">
				<path id="XMLID_142_" class="st0" d="M35.9,25.9V9.4h3.2l6.7,11v-11H49v16.5h-3.3L39,15.1v10.7H35.9z"/>
			</g>
		</g>
		<g id="XMLID_16_">
			<polygon id="XMLID_38_" class="st0" points="9.7,104.5 42.5,35 75.3,104.5 42.5,81.8 			"/>
			<path id="XMLID_39_" class="st1" d="M85.2,116.2L42.5,86.7l-42.7,29.5l42.7-90.6L85.2,116.2z M42.5,44.3L19.7,92.7L42.5,77
				l22.8,15.8L42.5,44.3z"/>
		</g>
		<g id="XMLID_45_">
			<path id="XMLID_46_" class="st2" d="M42.5,86.7l-21.7,15c5.6,5.5,13.3,8.8,21.7,8.8c8.5,0,16.1-3.4,21.7-8.8L42.5,86.7z"/>
			<path id="XMLID_47_" class="st2" d="M72.3,88.7c0.9-2.9,1.4-6.1,1.4-9.3c0-13.1-8-24.2-19.4-28.9L72.3,88.7z"/>
			<path id="XMLID_49_" class="st2" d="M30.7,50.5c-11.4,4.6-19.4,15.8-19.4,28.9c0,3.2,0.5,6.4,1.4,9.3L30.7,50.5z"/>
		</g>
		<g id="XMLID_17_">
			<polygon id="XMLID_34_" class="st0" points="9.7,104.5 42.5,35 75.3,104.5 42.5,81.8 			"/>
			<path id="XMLID_35_" class="st0" d="M77.8,107.4L42.5,83L7.2,107.4l35.3-74.8L77.8,107.4z M42.5,37.3l-30.3,64.2l30.3-20.9
				l30.3,20.9L42.5,37.3z"/>
		</g>
		<g id="XMLID_20_">
			<polygon id="XMLID_22_" class="st1" points="42.5,81.8 9.7,104.5 42.5,35 			"/>
			<path id="XMLID_23_" class="st0" d="M9.7,105.5c-0.2,0-0.5-0.1-0.6-0.2c-0.3-0.3-0.5-0.8-0.3-1.2l32.8-69.5
				c0.2-0.4,0.7-0.7,1.1-0.5c0.5,0.1,0.8,0.5,0.8,1v46.9c0,0.3-0.2,0.6-0.4,0.8l-32.8,22.6C10.1,105.4,9.9,105.5,9.7,105.5z
				 M41.5,39.4l-29.3,62.1l29.3-20.2V39.4z"/>
		</g>
	</g>
</g>
<g id="Camada_1">
	<g id="XMLID_13_">
	</g>
	<g id="XMLID_18_">
	</g>
	<g id="XMLID_102_">
	</g>
	<g id="XMLID_105_">
	</g>
	<g id="XMLID_106_">
	</g>
	<g id="XMLID_107_">
	</g>
	<g id="XMLID_108_">
	</g>
	<g id="XMLID_109_">
	</g>
	<g id="XMLID_110_">
	</g>
	<g id="XMLID_111_">
	</g>
	<g id="XMLID_112_">
	</g>
	<g id="XMLID_113_">
	</g>
	<g id="XMLID_114_">
	</g>
	<g id="XMLID_115_">
	</g>
	<g id="XMLID_116_">
	</g>
</g>
</svg>
